<svg width="16" height="19" viewBox="0 0 16 19" fill="none" xmlns="http://www.w3.org/2000/svg">
<path d="M5.47916 0.75C5.47916 0.370304 5.78697 0.0625 6.16666 0.0625H9.83333C10.213 0.0625 10.5208 0.370304 10.5208 0.75V1.4375H14.4167C14.7964 1.4375 15.1042 1.7453 15.1042 2.125C15.1042 2.5047 14.7964 2.8125 14.4167 2.8125H1.58333C1.20363 2.8125 0.895828 2.5047 0.895828 2.125C0.895828 1.7453 1.20363 1.4375 1.58333 1.4375H5.47916V0.75Z" fill="white"/>
<path fill-rule="evenodd" clip-rule="evenodd" d="M2.7199 5.28272C2.74569 5.0506 2.94189 4.875 3.17543 4.875H12.8246C13.0581 4.875 13.2543 5.0506 13.2801 5.28272L13.4636 6.93395C13.7943 9.91035 13.7943 12.9142 13.4636 15.8906L13.4455 16.0532C13.325 17.1372 12.4849 18.0016 11.4047 18.1528C9.14592 18.469 6.85406 18.469 4.59526 18.1528C3.51509 18.0016 2.67494 17.1372 2.55449 16.0532L2.53643 15.8906C2.20572 12.9142 2.20572 9.91035 2.53643 6.93395L2.7199 5.28272ZM6.85416 8.45C6.85416 8.0703 6.54636 7.76249 6.16666 7.76249C5.78697 7.76249 5.47916 8.0703 5.47916 8.45V14.8667C5.47916 15.2464 5.78697 15.5542 6.16666 15.5542C6.54636 15.5542 6.85416 15.2464 6.85416 14.8667L6.85416 8.45ZM10.5208 8.45C10.5208 8.0703 10.213 7.76249 9.83333 7.76249C9.45363 7.76249 9.14583 8.0703 9.14583 8.45V14.8667C9.14583 15.2464 9.45363 15.5542 9.83333 15.5542C10.213 15.5542 10.5208 15.2464 10.5208 14.8667V8.45Z" fill="white"/>
</svg>
