<svg width="30" height="28" viewBox="0 0 30 28" fill="none" xmlns="http://www.w3.org/2000/svg">
<g clip-path="url(#clip0_19_102)">
<path d="M25.5793 4.39974C24.1227 2.95339 22.3842 1.81764 20.4702 1.0621C18.5561 0.306751 16.507 -0.0525749 14.4482 0.00620552C12.3866 0.0640407 10.3591 0.543778 8.49284 1.41573C6.62661 2.28744 4.9617 3.53265 3.60214 5.07297C-1.49956 10.8133 -1.14291 20.2736 4.42266 25.8011L4.52967 25.9074H4.52992C5.53035 26.9012 6.98871 27.2893 8.35546 26.9255C9.72247 26.5617 10.7901 25.5016 11.1562 24.1439C11.5225 22.7866 11.1318 21.3382 10.1311 20.3443C9.79414 20.0804 9.59878 19.6762 9.60177 19.2499C9.60501 18.8236 9.80584 18.4224 10.1465 18.1631C10.4875 17.9036 10.9295 17.8149 11.345 17.9227C11.7604 18.0307 12.1023 18.3228 12.2718 18.7146L12.3432 18.8209H12.343C12.6396 19.3564 12.666 19.9993 12.4144 20.5571C12.0737 21.3844 11.9869 22.2932 12.1645 23.1696C12.3422 24.0458 12.7767 24.8503 13.4134 25.4823C15.0069 27.0572 17.1521 27.9588 19.3998 27.9986C21.6475 28.0382 23.8236 27.2127 25.4723 25.6949L25.6863 25.4823H25.7219C28.4898 22.6531 30.0262 18.8564 29.9997 14.912C29.9728 10.9673 28.3853 7.19141 25.5793 4.39982L25.5793 4.39974ZM24.1524 23.9941V23.9943C22.9153 25.1837 21.2571 25.8428 19.5352 25.8295C17.8136 25.8161 16.1658 25.1318 14.9476 23.9234C14.6074 23.5877 14.375 23.1594 14.2799 22.6928C14.1846 22.2262 14.2306 21.742 14.4123 21.3013C14.9312 20.1206 14.8516 18.7647 14.1983 17.6517L14.1269 17.5454C13.4883 16.4609 12.3236 15.7884 11.0586 15.7738L10.4522 15.8447C9.60177 16.0034 8.83974 16.4668 8.3107 17.1465C7.78137 17.8264 7.52179 18.6754 7.5813 19.5329C7.64053 20.39 8.01482 21.196 8.63275 21.7973C9.00729 22.128 9.22804 22.5974 9.24272 23.0949C9.25765 23.5925 9.06503 24.0739 8.71064 24.4259C8.35626 24.7778 7.87147 24.9691 7.37052 24.9543C6.86956 24.9397 6.39698 24.7205 6.06397 24.3485L5.95696 24.2422C1.14042 19.5297 0.819393 11.3801 5.20762 6.49041C6.7488 4.80476 8.71289 3.55563 10.8991 2.87076C13.0854 2.1859 15.4155 2.08947 17.6517 2.59172C19.8877 3.0937 21.9496 4.17626 23.6264 5.72891C25.3032 7.28131 26.5351 9.24795 27.1961 11.4281C27.8573 13.6081 27.9238 15.9232 27.3889 18.1376C26.8541 20.3516 25.7372 22.3848 24.1524 24.0299L24.1524 23.9941Z" fill="white"/>
<path d="M6.20664 7.12805C5.58099 7.74471 5.22787 8.58332 5.22564 9.45877C5.2234 10.3342 5.57181 11.1745 6.19447 11.7944C6.81687 12.4143 7.66201 12.7626 8.54374 12.7626C9.42522 12.7626 10.2704 12.4143 10.8928 11.7944C11.5154 11.1745 11.8638 10.3342 11.8616 9.45877C11.8593 8.58332 11.5062 7.7447 10.8806 7.12805C10.2589 6.51583 9.41904 6.17206 8.54374 6.17206C7.66825 6.17206 6.82831 6.51586 6.20664 7.12805ZM9.3819 10.2816C9.15618 10.4961 8.85605 10.6157 8.54374 10.6157C8.23117 10.6157 7.93104 10.4961 7.70533 10.2816C7.48658 10.0613 7.36488 9.76426 7.36638 9.4551C7.36787 9.14615 7.49255 8.85005 7.71305 8.63204C7.93379 8.4138 8.23242 8.29146 8.54375 8.29146C8.85483 8.29146 9.15347 8.4138 9.3742 8.63204C9.59469 8.85004 9.71938 9.14613 9.72087 9.4551C9.72236 9.76429 9.60067 10.0614 9.38191 10.2816H9.3819Z" fill="white"/>
<path d="M18.3012 4.54146C17.5748 3.81459 16.5492 3.46456 15.5263 3.59433C14.5035 3.72409 13.5994 4.31874 13.08 5.20362C12.5609 6.08842 12.4852 7.16286 12.8757 8.11068C13.2662 9.05851 14.0782 9.77235 15.0732 10.042C16.0679 10.3116 17.1325 10.1067 17.9535 9.48709C18.7748 8.8677 19.2593 7.904 19.2645 6.88006C19.269 6.00436 18.9226 5.16277 18.3012 4.54143V4.54146ZM16.8027 7.69498C16.577 7.90927 16.2769 8.02914 15.9643 8.02914C15.652 8.02914 15.3519 7.90927 15.1259 7.69498C14.9074 7.47476 14.7857 7.17768 14.7872 6.86851C14.7887 6.55932 14.9134 6.26347 15.1339 6.04521C15.3546 5.82721 15.6533 5.70487 15.9643 5.70487C16.2757 5.70487 16.5743 5.82721 16.795 6.04521C17.0155 6.26345 17.1402 6.5593 17.1417 6.86851C17.1432 7.17771 17.0215 7.47479 16.8028 7.69498H16.8027Z" fill="white"/>
<path d="M22.297 14.7107C23.3281 14.7055 24.2984 14.2243 24.922 13.4087C25.5459 12.5933 25.7522 11.5359 25.4807 10.548C25.2092 9.55989 24.4907 8.75342 23.5361 8.36562C22.5818 7.97782 21.4999 8.05296 20.609 8.56853C19.7181 9.08435 19.1193 9.9823 18.9886 10.9981C18.858 12.0139 19.2104 13.0324 19.9423 13.7539C20.5679 14.3711 21.4153 14.7151 22.2971 14.7107H22.297ZM21.4407 10.6004C21.7403 10.3031 22.1769 10.1869 22.586 10.2957C22.9951 10.4047 23.3149 10.722 23.4244 11.1283C23.5342 11.5347 23.4172 11.9684 23.1176 12.2658C22.8918 12.4803 22.5915 12.5999 22.2792 12.5999C21.9668 12.5999 21.6665 12.4803 21.4407 12.2658C21.2163 12.0461 21.0901 11.7463 21.0901 11.4331C21.0901 11.1202 21.2163 10.8204 21.4407 10.6005L21.4407 10.6004Z" fill="white"/>
<path d="M24.6517 16.8721C24.0308 16.2507 23.1864 15.9 22.3049 15.8978C21.4234 15.8953 20.5773 16.2416 19.9532 16.8597C19.329 17.4781 18.9781 18.3175 18.9781 19.1929C18.9781 20.0683 19.329 20.9079 19.9532 21.5261C20.5773 22.1442 21.4234 22.4905 22.3049 22.4883C23.1864 22.4858 24.0308 22.1353 24.6517 21.5137C25.2681 20.8966 25.614 20.0624 25.614 19.1929C25.614 18.3237 25.2681 17.4892 24.6517 16.8721ZM23.1531 20.0256C22.8903 20.2792 22.5237 20.3968 22.1611 20.3437C21.7985 20.2905 21.4817 20.0728 21.3038 19.7547C21.1259 19.4366 21.1072 19.0545 21.2533 18.7206C21.3994 18.3869 21.6935 18.1397 22.0491 18.052C22.4047 17.9643 22.7813 18.0461 23.0675 18.2732C23.3539 18.5004 23.5174 18.8469 23.5099 19.2107C23.5037 19.5184 23.3755 19.8113 23.1531 20.0256L23.1531 20.0256Z" fill="white"/>
</g>
<defs>
<clipPath id="clip0_19_102">
<rect width="30" height="28" fill="white"/>
</clipPath>
</defs>
</svg>
